<?xml version="1.0" ?>
<!DOCTYPE svg  PUBLIC '-//W3C//DTD SVG 1.1//EN'  'http://www.w3.org/Graphics/SVG/1.1/DTD/svg11.dtd'>
<!-- Uploaded to: SVG Repo, www.svgrepo.com, Generator: SVG Repo Mixer Tools -->
<svg fill="#000000" width="800px" height="800px" viewBox="0 0 48 48" enable-background="new 0 0 48 48" id="Layer_1" version="1.1" xml:space="preserve" xmlns="http://www.w3.org/2000/svg" xmlns:xlink="http://www.w3.org/1999/xlink">
<g>
<g>
<path d="M32.329,42.188c-0.374,0-0.731-0.211-0.902-0.568L24.938,28.05c-0.476,0.655-0.909,1.221-1.523,1.632    c-3.739,2.5-5.497,4.572-4.082,8.354c0.189,0.504,0.021,0.971-0.081,1.25l-0.039,0.113c-0.08,0.295-0.301,0.577-0.583,0.697    l-2.484,1.059c-0.291,0.123-0.623,0.104-0.896-0.057c-0.273-0.158-0.455-0.438-0.491-0.751c-0.423-3.72-2.732-5.647-7.487-6.247    c-0.317-0.041-0.597-0.23-0.751-0.511c-0.154-0.28-0.165-0.618-0.028-0.907l1.38-2.936c0.18-0.383,0.585-0.605,1.001-0.57    l5.359,0.516l5.342-7.345L6.311,15.664c-0.348-0.175-0.563-0.537-0.55-0.927l0.035-1.05c0.015-0.44,0.315-0.818,0.74-0.933    c0.372-0.1,0.742-0.223,1.113-0.346c0.935-0.31,1.901-0.629,2.938-0.646c0.993-0.023,1.999,0.226,2.942,0.459    c0.474,0.118,0.949,0.236,1.425,0.316c3.095,0.517,6.192,1.02,9.216,1.51l3.46,0.563l2.584-2.266    c2.228-1.956,4.374-3.842,6.541-5.706c1.003-0.862,2.009-1.229,2.992-1.098c1.063,0.145,1.999,0.843,2.861,2.134    c0.177,0.265,0.218,0.597,0.109,0.896c-1.191,3.287-3.654,5.244-6.037,7.137c-1.408,1.119-2.745,2.182-3.762,3.47    c0.031,0.128,0.062,0.253,0.091,0.376c0.137,0.562,0.266,1.093,0.348,1.646c0.247,1.665,0.478,3.333,0.709,5    c0.47,3.393,0.955,6.9,1.574,10.313l0.099,0.538c0.603,3.255,0.318,3.729-3.04,5.063C32.577,42.166,32.452,42.188,32.329,42.188z     M25.13,25.133c0.04,0,0.079,0.002,0.119,0.007c0.34,0.04,0.636,0.253,0.783,0.562l6.794,14.208    c0.586-0.245,1.062-0.471,1.154-0.624c0.104-0.173-0.055-1.033-0.209-1.866l-0.101-0.546c-0.626-3.455-1.114-6.982-1.587-10.396    c-0.23-1.661-0.46-3.322-0.706-4.981c-0.068-0.463-0.182-0.929-0.313-1.469c-0.066-0.272-0.136-0.557-0.202-0.858    c-0.063-0.278-0.003-0.57,0.163-0.802c1.206-1.678,2.834-2.972,4.409-4.224c2.129-1.691,4.146-3.294,5.209-5.769    c-0.33-0.412-0.743-0.793-1.169-0.852c-0.39-0.054-0.868,0.159-1.417,0.632c-2.162,1.859-4.304,3.74-6.526,5.692l-2.938,2.578    c-0.225,0.197-0.525,0.282-0.82,0.234l-3.925-0.638c-3.027-0.491-6.128-0.994-9.226-1.511c-0.526-0.088-1.052-0.217-1.576-0.347    c-0.857-0.212-1.674-0.431-2.43-0.401c-0.729,0.011-1.511,0.27-2.339,0.544c-0.043,0.015-0.086,0.029-0.13,0.043l13.231,6.665    c0.394,0.198,0.599,0.621,0.541,1.034c0.035,0.248-0.023,0.509-0.182,0.727l-6.222,8.555c-0.208,0.285-0.55,0.439-0.905,0.407    l-5.226-0.503L8.869,32.33c4.302,0.846,6.821,2.98,7.654,6.489l0.839-0.357c-1.852-5.343,1.572-8.189,4.941-10.442    c0.368-0.246,0.707-0.715,1.136-1.309c0.266-0.369,0.56-0.775,0.917-1.211C24.546,25.266,24.832,25.133,25.13,25.133z"/>
</g>
<g>
<path d="M15.904,14.253c-0.268,0-0.536-0.107-0.733-0.319c-0.375-0.405-0.352-1.038,0.052-1.414l3.909-3.629    c0.404-0.375,1.037-0.353,1.413,0.053c0.376,0.405,0.352,1.038-0.053,1.413l-3.908,3.629    C16.392,14.165,16.147,14.253,15.904,14.253z"/>
</g>
<g>
<path d="M34.608,32.678c-0.256,0-0.512-0.098-0.707-0.292c-0.391-0.391-0.391-1.023,0-1.415l3.629-3.629    c0.391-0.391,1.023-0.391,1.414-0.001c0.391,0.391,0.391,1.023,0,1.415l-3.629,3.629C35.12,32.58,34.864,32.678,34.608,32.678z"/>
</g>
<g>
<path d="M33.538,25.518c-0.256,0-0.512-0.098-0.707-0.293c-0.391-0.39-0.391-1.023,0-1.415l3.629-3.629    c0.391-0.391,1.023-0.391,1.414-0.001c0.391,0.391,0.391,1.023,0,1.415l-3.629,3.629C34.05,25.42,33.794,25.518,33.538,25.518z"/>
</g>
<g>
<path d="M22.882,15.371c-0.223,0-0.447-0.074-0.633-0.226c-0.428-0.35-0.49-0.98-0.141-1.407l2.513-3.072    c0.35-0.427,0.979-0.489,1.408-0.141c0.427,0.35,0.49,0.98,0.141,1.407l-2.513,3.072C23.459,15.246,23.172,15.371,22.882,15.371z"/>
</g>
</g>
</svg>