<?xml version="1.0" encoding="iso-8859-1"?>
<!-- Uploaded to: SVG Repo, www.svgrepo.com, Generator: SVG Repo Mixer Tools -->
<svg fill="#000000" height="800px" width="800px" version="1.1" id="Capa_1" xmlns="http://www.w3.org/2000/svg" xmlns:xlink="http://www.w3.org/1999/xlink" 
	 viewBox="0 0 490.8 490.8" xml:space="preserve">
<g>
	<g>
		<path d="M470,172.637h-29.7L259.5,5.938c-8.3-7.3-19.8-7.3-28.1,0l-180.8,166.7H20.8c-11.5,0-20.8,9.4-20.8,20.8v276.1
			c0,11.5,9.4,20.8,20.8,20.8h448.1c11.5,0,20.8-9.4,21.9-20.8v-276.1C490.8,182.038,481.4,172.637,470,172.637z M244.9,48.638
			l134.5,124H111.2L244.9,48.638z M449.1,449.837H40.6v-235.5h408.5V449.837z"/>
		<g>
			<path d="M154.4,332.237l56.7-56.7c5.2-5.2,5.2-13.6,0-18.8c-5.2-5.2-13.6-5.2-18.8,0l-43.3,43.3v-34.9c0-7.4-6-13.3-13.3-13.3
				c-7.4,0-13.3,6-13.3,13.3v67l0,0v66.1c0,7.4,6,13.3,13.3,13.3c7.4,0,13.3-6,13.3-13.3v-33.8l43.3,43.3c2.6,2.6,6,3.9,9.4,3.9
				s6.8-1.3,9.4-3.9c5.2-5.2,5.2-13.6,0-18.8L154.4,332.237z"/>
			<path d="M355.3,318.938h-66.5c-7.4,0-13.3,6-13.3,13.3s6,13.3,13.3,13.3h51.5c-5.9,22.9-26.8,39.9-51.5,39.9
				c-29.4,0-53.2-23.9-53.2-53.2c0-29.3,23.9-53.2,53.2-53.2c15,0,29.5,6.4,39.5,17.6c4.9,5.5,13.4,5.9,18.8,1
				c5.5-4.9,5.9-13.4,1-18.8c-15.1-16.8-36.8-26.4-59.3-26.4c-44,0-79.9,35.8-79.9,79.9s35.8,79.9,79.9,79.9s79.9-35.8,79.9-79.9
				C368.6,324.938,362.6,318.938,355.3,318.938z"/>
		</g>
	</g>
</g>
</svg>